<?xml version="1.0" standalone="no"?>
<!DOCTYPE svg PUBLIC "-//W3C//DTD SVG 20010904//EN"
 "http://www.w3.org/TR/2001/REC-SVG-20010904/DTD/svg10.dtd">
<svg version="1.0" xmlns="http://www.w3.org/2000/svg"
 width="2000.000000pt" height="2000.000000pt" viewBox="0 0 2000.000000 2000.000000"
 preserveAspectRatio="xMidYMid meet">

<g transform="translate(0.000000,2000.000000) scale(0.100000,-0.100000)"
fill="#000000" stroke="none">
<path d="M4583 15355 c-205 -37 -385 -130 -540 -278 -140 -134 -237 -299 -291
-495 l-27 -97 0 -3510 0 -3510 27 -97 c84 -305 277 -542 553 -678 55 -28 145
-62 200 -78 l100 -27 1963 -3 1962 -2 0 -840 0 -840 -340 0 c-315 0 -344 -1
-378 -19 -47 -24 -77 -56 -97 -103 -12 -31 -15 -93 -15 -373 l0 -335 -315 0
-315 0 0 -210 0 -210 2930 0 2930 0 0 210 0 210 -315 0 -315 0 0 335 c0 280
-3 342 -15 373 -20 47 -50 79 -97 103 -34 18 -63 19 -378 19 l-340 0 0 840 0
840 1963 2 1962 3 97 27 c305 84 542 277 678 553 28 55 62 145 78 200 l27 100
0 3510 0 3510 -27 97 c-112 407 -432 702 -837 773 -73 13 -771 15 -5420 14
-4332 -1 -5349 -3 -5408 -14z m10796 -420 c204 -49 370 -203 454 -422 l22 -58
3 -2787 2 -2788 -5860 0 -5860 0 2 2788 3 2787 22 58 c41 108 87 181 158 252
78 79 193 145 292 169 50 12 827 14 5378 15 4704 1 5327 -1 5384 -14z m481
-6915 c0 -493 -5 -539 -65 -665 -82 -170 -248 -301 -432 -340 -103 -22 -10623
-22 -10726 0 -184 39 -350 170 -432 340 -60 126 -65 172 -65 665 l0 440 5860
0 5860 0 0 -440z m-4820 -2275 l0 -835 -1040 0 -1040 0 0 835 0 835 1040 0
1040 0 0 -835z"/>
<path d="M4855 14516 c-115 -37 -202 -111 -256 -221 l-34 -70 -3 -367 -3 -368
211 0 210 0 0 315 0 315 310 0 310 0 0 205 0 205 -352 -1 c-256 0 -364 -4
-393 -13z"/>
<path d="M9580 7625 l0 -215 420 0 420 0 0 215 0 215 -420 0 -420 0 0 -215z"/>
</g>
</svg>
